<svg viewBox="0 0 24 24" xmlns="http://www.w3.org/2000/svg">
  <!-- Left person head -->
  <rect x="2" y="3" width="4" height="4" fill="#000"/>
  <!-- Left person body -->
  <rect x="2" y="7" width="4" height="6" fill="#000"/>
  <!-- Center person head -->
  <rect x="10" y="2" width="4" height="5" fill="#000"/>
  <!-- Center person body -->
  <rect x="10" y="7" width="4" height="7" fill="#000"/>
  <!-- Right person head -->
  <rect x="18" y="3" width="4" height="4" fill="#000"/>
  <!-- Right person body -->
  <rect x="18" y="7" width="4" height="6" fill="#000"/>
  <!-- Arms -->
  <rect x="1" y="9" width="6" height="2" fill="#000"/>
  <rect x="9" y="10" width="6" height="2" fill="#000"/>
  <rect x="17" y="9" width="6" height="2" fill="#000"/>
  <!-- Legs -->
  <rect x="3" y="13" width="2" height="3" fill="#000"/>
  <rect x="11" y="14" width="2" height="3" fill="#000"/>
  <rect x="19" y="13" width="2" height="3" fill="#000"/>
  <rect x="5" y="13" width="2" height="3" fill="#000"/>
  <rect x="13" y="14" width="2" height="3" fill="#000"/>
  <rect x="21" y="13" width="2" height="3" fill="#000"/>
</svg>